<?xml version="1.0" encoding="utf-8"?>
<!-- Generator: Adobe Illustrator 17.0.0, SVG Export Plug-In . SVG Version: 6.00 Build 0)  -->
<!DOCTYPE svg PUBLIC "-//W3C//DTD SVG 1.1//EN" "http://www.w3.org/Graphics/SVG/1.1/DTD/svg11.dtd">
<svg version="1.1" id="Слой_1" xmlns="http://www.w3.org/2000/svg" xmlns:xlink="http://www.w3.org/1999/xlink" x="0px" y="0px"
	 width="595.28px" height="841.89px" viewBox="0 0 595.28 841.89" enable-background="new 0 0 595.28 841.89" xml:space="preserve">
<path fill="#FF67AB" d="M372.05,458.15h223.23v167.422c0,30.822-24.985,55.807-55.807,55.807H55.808
	C24.985,681.38,0,656.395,0,625.573V458.15h223.23v23.253c0,7.705,6.247,13.952,13.952,13.952h120.916
	c7.705,0,13.952-6.247,13.952-13.952V458.15z M595.28,327.932v93.013H0v-93.013c0-30.822,24.985-55.807,55.808-55.807h93.013
	v-55.807c0-30.822,24.985-55.808,55.808-55.808h186.025c30.822,0,55.807,24.985,55.807,55.808v55.807h93.013
	C570.295,272.125,595.28,297.111,595.28,327.932z M372.05,234.92H223.23v37.205h148.82V234.92z"/>
</svg>
