<?xml version="1.0" encoding="utf-8"?>
<!-- Generator: Adobe Illustrator 17.0.0, SVG Export Plug-In . SVG Version: 6.00 Build 0)  -->
<!DOCTYPE svg PUBLIC "-//W3C//DTD SVG 1.1//EN" "http://www.w3.org/Graphics/SVG/1.1/DTD/svg11.dtd">
<svg version="1.1" id="Слой_1" xmlns="http://www.w3.org/2000/svg" xmlns:xlink="http://www.w3.org/1999/xlink" x="0px" y="0px"
	 width="595.28px" height="841.89px" viewBox="0 0 595.28 841.89" enable-background="new 0 0 595.28 841.89" xml:space="preserve">
<path fill="#FF67AB" d="M595.28,187.085v467.72c0,35.212-28.568,63.78-63.78,63.78H418.158V483.13h80.522l11.56-89.824h-92.082
	v-57.402c0-26.043,7.175-43.716,44.513-43.716h47.569v-80.257c-8.238-1.063-36.408-3.588-69.361-3.588
	c-68.564,0-115.601,41.856-115.601,118.79v66.305H244.49v89.823h80.921v235.322H63.78c-35.212,0-63.78-28.568-63.78-63.78v-467.72
	c0-35.212,28.568-63.78,63.78-63.78H531.5C566.712,123.305,595.28,151.873,595.28,187.085z"/>
</svg>
