<?xml version="1.0" encoding="utf-8"?>
<!-- Generator: Adobe Illustrator 17.0.0, SVG Export Plug-In . SVG Version: 6.00 Build 0)  -->
<!DOCTYPE svg PUBLIC "-//W3C//DTD SVG 1.1//EN" "http://www.w3.org/Graphics/SVG/1.1/DTD/svg11.dtd">
<svg version="1.1" id="Слой_1" xmlns="http://www.w3.org/2000/svg" xmlns:xlink="http://www.w3.org/1999/xlink" x="0px" y="0px"
	 width="595.28px" height="841.89px" viewBox="0 0 595.28 841.89" enable-background="new 0 0 595.28 841.89" xml:space="preserve">
<path fill="#FF67AB" d="M297.773,268.139c-84.509,0-152.673,68.165-152.673,152.673s68.165,152.673,152.673,152.673
	s152.673-68.165,152.673-152.673S382.281,268.139,297.773,268.139z M297.773,520.07c-54.612,0-99.258-44.513-99.258-99.258
	s44.513-99.258,99.258-99.258s99.258,44.513,99.258,99.258S352.384,520.07,297.773,520.07L297.773,520.07z M492.302,261.894
	c0,19.798-15.945,35.611-35.61,35.611c-19.798,0-35.611-15.945-35.611-35.611s15.945-35.611,35.611-35.611
	C476.357,226.283,492.302,242.228,492.302,261.894z M593.42,298.036c-2.259-47.702-13.155-89.956-48.101-124.77
	c-34.813-34.813-77.067-45.709-124.77-48.101c-49.164-2.79-196.522-2.79-245.686,0c-47.569,2.259-89.824,13.155-124.77,47.968
	S4.385,250.201,1.993,297.903c-2.79,49.164-2.79,196.522,0,245.686c2.259,47.702,13.155,89.956,48.101,124.77
	s77.068,45.709,124.77,48.101c49.164,2.79,196.522,2.79,245.686,0c47.702-2.259,89.956-13.155,124.77-48.101
	c34.813-34.813,45.709-77.068,48.101-124.77C596.21,494.425,596.21,347.199,593.42,298.036L593.42,298.036z M529.906,596.34
	c-10.364,26.044-30.428,46.108-56.605,56.605c-39.198,15.546-132.211,11.959-175.528,11.959s-136.463,3.455-175.528-11.959
	c-26.044-10.364-46.108-30.428-56.605-56.605c-15.546-39.198-11.959-132.211-11.959-175.528S50.227,284.349,65.64,245.284
	c10.364-26.044,30.428-46.108,56.605-56.605c39.198-15.546,132.211-11.959,175.528-11.959s136.463-3.455,175.528,11.959
	c26.044,10.364,46.108,30.428,56.605,56.605c15.546,39.198,11.959,132.211,11.959,175.528S545.452,557.275,529.906,596.34z"/>
</svg>
