<?xml version="1.0" encoding="utf-8"?>
<!-- Generator: Adobe Illustrator 17.0.0, SVG Export Plug-In . SVG Version: 6.00 Build 0)  -->
<!DOCTYPE svg PUBLIC "-//W3C//DTD SVG 1.1//EN" "http://www.w3.org/Graphics/SVG/1.1/DTD/svg11.dtd">
<svg version="1.1" id="Слой_1" xmlns="http://www.w3.org/2000/svg" xmlns:xlink="http://www.w3.org/1999/xlink" x="0px" y="0px"
	 width="595.28px" height="841.89px" viewBox="0 0 595.28 841.89" enable-background="new 0 0 595.28 841.89" xml:space="preserve">
<path fill="#FF67AB" d="M595.28,187.085v467.72c0,35.212-28.568,63.78-63.78,63.78H205.159
	c13.022-21.792,29.764-53.15,36.408-78.795c3.986-15.281,20.33-77.599,20.33-77.599c10.63,20.33,41.723,37.471,74.809,37.471
	c98.46,0,169.283-90.488,169.283-202.9c0-107.762-87.963-188.417-201.173-188.417c-140.848,0-215.523,94.474-215.523,197.452
	c0,47.835,25.512,107.363,66.172,126.364c6.245,2.923,9.434,1.595,10.896-4.385c1.063-4.518,6.644-26.708,9.036-36.939
	c0.797-3.322,0.399-6.112-2.259-9.301c-13.42-16.344-24.316-46.373-24.316-74.41c0-72.018,54.479-141.645,147.358-141.645
	c80.124,0,136.33,54.612,136.33,132.742c0,88.229-44.513,149.352-102.579,149.352c-32.023,0-55.94-26.442-48.366-58.996
	c9.168-38.8,26.974-80.655,26.974-108.692c0-70.424-100.321-60.724-100.321,33.219c0,28.834,9.7,48.499,9.7,48.499
	c-41.723,176.458-47.968,178.717-39.331,255.917l2.923,1.063H63.78c-35.212,0-63.78-28.568-63.78-63.78v-467.72
	c0-35.212,28.568-63.78,63.78-63.78H531.5C566.712,123.305,595.28,151.873,595.28,187.085z"/>
</svg>
