<?xml version="1.0" encoding="utf-8"?>
<!-- Generator: Adobe Illustrator 17.0.0, SVG Export Plug-In . SVG Version: 6.00 Build 0)  -->
<!DOCTYPE svg PUBLIC "-//W3C//DTD SVG 1.1//EN" "http://www.w3.org/Graphics/SVG/1.1/DTD/svg11.dtd">
<svg version="1.1" id="Слой_1" xmlns="http://www.w3.org/2000/svg" xmlns:xlink="http://www.w3.org/1999/xlink" x="0px" y="0px"
	 width="595.28px" height="841.89px" viewBox="0 0 595.28 841.89" enable-background="new 0 0 595.28 841.89" xml:space="preserve">
<path fill="#FF67AB" d="M531.5,123.305H63.78c-35.212,0-63.78,28.568-63.78,63.78v467.72c0,35.212,28.568,63.78,63.78,63.78H531.5
	c35.212,0,63.78-28.568,63.78-63.78v-467.72C595.28,151.873,566.712,123.305,531.5,123.305z M466.524,334.311
	c0.266,3.72,0.266,7.574,0.266,11.294c0,115.203-87.698,247.945-247.945,247.945c-49.429,0-95.271-14.351-133.805-39.065
	c7.042,0.797,13.819,1.063,20.994,1.063c40.793,0,78.263-13.819,108.16-37.205c-38.268-0.797-70.424-25.911-81.452-60.458
	c13.42,1.993,25.512,1.993,39.331-1.595c-39.863-8.105-69.759-43.184-69.759-85.572v-1.063c11.56,6.511,25.113,10.497,39.331,11.029
	c-24.278-16.149-38.847-43.391-38.8-72.55c0-16.211,4.252-31.093,11.826-43.982c42.919,52.884,107.363,87.432,179.647,91.152
	c-12.357-59.129,31.89-107.097,85.04-107.097c25.113,0,47.702,10.497,63.647,27.505c19.665-3.72,38.534-11.029,55.276-20.994
	c-6.511,20.197-20.197,37.205-38.268,47.968c17.54-1.86,34.547-6.777,50.227-13.553C498.414,306.54,483.532,321.953,466.524,334.311
	z"/>
</svg>
