<?xml version="1.0" encoding="utf-8"?>
<!-- Generator: Adobe Illustrator 17.0.0, SVG Export Plug-In . SVG Version: 6.00 Build 0)  -->
<!DOCTYPE svg PUBLIC "-//W3C//DTD SVG 1.1//EN" "http://www.w3.org/Graphics/SVG/1.1/DTD/svg11.dtd">
<svg version="1.1" id="Слой_1" xmlns="http://www.w3.org/2000/svg" xmlns:xlink="http://www.w3.org/1999/xlink" x="0px" y="0px"
	 width="595.28px" height="841.89px" viewBox="0 0 595.28 841.89" enable-background="new 0 0 595.28 841.89" xml:space="preserve">
<path fill="#FF67AB" d="M248.211,349.325l126.497,71.885l-126.497,71.885V349.325z M595.28,187.085v467.72
	c0,35.212-28.568,63.78-63.78,63.78H63.78c-35.212,0-63.78-28.568-63.78-63.78v-467.72c0-35.212,28.568-63.78,63.78-63.78H531.5
	C566.712,123.305,595.28,151.873,595.28,187.085z M539.473,421.344c0,0,0-79.194-10.099-117.196
	c-5.581-20.994-21.924-37.471-42.786-43.052c-37.604-10.231-188.948-10.231-188.948-10.231s-151.345,0-188.948,10.231
	c-20.861,5.581-37.205,22.057-42.786,43.052c-10.098,37.869-10.098,117.196-10.098,117.196s0,79.194,10.098,117.196
	c5.581,20.994,21.924,36.806,42.786,42.387c37.604,10.099,188.948,10.099,188.948,10.099s151.345,0,188.948-10.231
	c20.861-5.581,37.205-21.393,42.786-42.387C539.473,500.537,539.473,421.344,539.473,421.344L539.473,421.344z"/>
</svg>
